<svg width="140" height="140" style="display: flex; justify-content: center; background-size: contain;" version="1.1" xmlns="http://www.w3.org/2000/svg" desc="Created with imagetracer.js version 1.2.6" ><path fill="rgb(0,0,0)" stroke="rgb(0,0,0)" stroke-width="1" opacity="0" d="M 0 0 L 180 0 L 180 128 L 0 128 L 0 0 Z M 87 4 L 69 8 L 55 16 L 40 32 L 35 42 L 35 45 L 35 46 L 42 43 L 47 43 L 56 30 Q 67 16 88 11 L 106 11 L 114 13 Q 126 18 135 26 L 138 29 L 136 25 Q 128 15 116 9 L 103 5 L 87 4 Z M 89 13 Q 75 15 67 23 Q 64 22 65 25 Q 73 20 85 18 L 101 19 L 118 27 L 131 42 L 143 42 L 136 31 Q 128 21 116 16 L 105 13 L 89 13 Z M 47 44 L 39 46 L 33 53 Q 32 60 34 64 Q 37 68 44 69 L 70 69 L 70 73 L 37 73 L 29 84 L 74 84 L 78 82 Q 82 79 83 73 L 81 65 L 74 60 L 47 60 L 45 59 L 46 56 L 81 56 L 82 58 L 88 82 L 93 85 L 99 84 Q 107 73 113 59 L 124 82 Q 125 86 131 86 L 123 97 Q 111 112 88 116 L 73 116 L 64 114 L 45 104 L 34 92 L 32 93 L 38 102 Q 52 118 79 123 L 95 123 L 104 121 Q 119 117 130 107 Q 145 93 150 69 L 150 52 L 148 51 L 140 80 L 135 84 L 137 82 L 148 47 L 148 44 L 135 44 L 130 65 L 129 66 L 119 47 L 117 44 Q 110 43 107 45 L 97 67 L 91 46 L 90 44 L 47 44 Z M 33 85 L 36 93 L 53 107 L 65 112 L 76 114 L 85 114 L 96 112 L 111 105 L 115 100 Q 106 106 95 108 L 80 108 L 75 107 Q 63 104 56 97 L 49 90 L 45 85 L 33 85 Z " /><path fill="rgb(64,66,66)" stroke="rgb(64,66,66)" stroke-width="1" opacity="0.49019607843137253" d="M 88.5 13 L 92 13.5 L 88.5 14 L 88.5 13 Z " /><path fill="rgb(64,66,66)" stroke="rgb(64,66,66)" stroke-width="1" opacity="0.49019607843137253" d="M 101.5 13 L 105 13.5 L 101.5 14 L 101.5 13 Z " /><path fill="rgb(64,66,66)" stroke="rgb(64,66,66)" stroke-width="1" opacity="0.49019607843137253" d="M 83.5 14 L 86 14.5 L 83.5 15 L 83.5 14 Z " /><path fill="rgb(64,66,66)" stroke="rgb(64,66,66)" stroke-width="1" opacity="0.49019607843137253" d="M 107.5 14 L 110 14.5 L 107.5 15 L 107.5 14 Z " /><path fill="rgb(64,66,66)" stroke="rgb(64,66,66)" stroke-width="1" opacity="0.49019607843137253" d="M 77.5 16 L 79 16.5 L 75.5 18 L 75.5 17 L 77.5 16 Z " /><path fill="rgb(64,66,66)" stroke="rgb(64,66,66)" stroke-width="1" opacity="0.49019607843137253" d="M 80.5 18 L 84 18.5 L 80.5 19 L 80.5 18 Z " /><path fill="rgb(64,66,66)" stroke="rgb(64,66,66)" stroke-width="1" opacity="0.49019607843137253" d="M 96.5 18 L 100 18.5 L 96.5 19 L 96.5 18 Z " /><path fill="rgb(64,66,66)" stroke="rgb(64,66,66)" stroke-width="1" opacity="0.49019607843137253" d="M 119.5 18 L 122 19.5 L 120.5 19 L 119.5 18 Z " /><path fill="rgb(64,66,66)" stroke="rgb(64,66,66)" stroke-width="1" opacity="0.49019607843137253" d="M 71.5 19 L 71.5 21 L 73 21.5 L 65 25 Q 63.9 22.3 66.5 23 L 71.5 19 Z " /><path fill="rgb(64,66,66)" stroke="rgb(64,66,66)" stroke-width="1" opacity="0.49019607843137253" d="M 123.5 20 L 128 23.5 L 125.5 22 L 123.5 20 Z " /><path fill="rgb(64,66,66)" stroke="rgb(64,66,66)" stroke-width="1" opacity="0.49019607843137253" d="M 107.5 21 Q 120.8 25.8 128 36.5 L 131 41.5 L 129 40.5 Q 125.3 31.7 117.5 27 L 107.5 22 L 107.5 21 Z " /><path fill="rgb(64,66,66)" stroke="rgb(64,66,66)" stroke-width="1" opacity="0.49019607843137253" d="M 129.5 24 L 135.5 31 L 129.5 24 Z " /><path fill="rgb(64,66,66)" stroke="rgb(64,66,66)" stroke-width="1" opacity="0.49019607843137253" d="M 136.5 32 L 138.5 35 L 136.5 32 Z " /><path fill="rgb(64,66,66)" stroke="rgb(64,66,66)" stroke-width="1" opacity="0.49019607843137253" d="M 139.5 36 L 143 41.5 L 141 40.5 L 139.5 36 Z " /><path fill="rgb(64,66,66)" stroke="rgb(64,66,66)" stroke-width="1" opacity="0.49019607843137253" d="M 46.5 44 L 90 44.5 L 46.5 45 L 46.5 44 Z " /><path fill="rgb(64,66,66)" stroke="rgb(64,66,66)" stroke-width="1" opacity="0.49019607843137253" d="M 38.5 46 L 40 46.5 L 34.5 51 L 38.5 46 Z " /><path fill="rgb(64,66,66)" stroke="rgb(64,66,66)" stroke-width="1" opacity="0.49019607843137253" d="M 33.5 52 L 34 54.5 L 33 54.5 L 33.5 52 Z " /><path fill="rgb(64,66,66)" stroke="rgb(64,66,66)" stroke-width="1" opacity="0.49019607843137253" d="M 46.5 55 L 81 55.5 L 46.5 56 L 46.5 55 Z " /><path fill="rgb(64,66,66)" stroke="rgb(64,66,66)" stroke-width="1" opacity="0.49019607843137253" d="M 44.5 57 L 46 59.5 L 44 58.5 L 44.5 57 Z " /><path fill="rgb(64,66,66)" stroke="rgb(64,66,66)" stroke-width="1" opacity="0.49019607843137253" d="M 33.5 59 L 37.5 66 L 42 67.5 L 39.5 68 L 34 63.5 L 33.5 59 Z " /><path fill="rgb(64,66,66)" stroke="rgb(64,66,66)" stroke-width="1" opacity="0.49019607843137253" d="M 70.5 60 L 74 60.5 L 70.5 61 L 70.5 60 Z " /><path fill="rgb(64,66,66)" stroke="rgb(64,66,66)" stroke-width="1" opacity="0.49019607843137253" d="M 78.5 62 L 80.5 65 L 78.5 62 Z " /><path fill="rgb(64,66,66)" stroke="rgb(64,66,66)" stroke-width="1" opacity="0.49019607843137253" d="M 43.5 68 L 69.5 68 L 71 69.5 L 70.5 73 L 70 69 L 43.5 69 L 43.5 68 Z " /><path fill="rgb(64,66,66)" stroke="rgb(64,66,66)" stroke-width="1" opacity="0.49019607843137253" d="M 82.5 70 L 83 72.5 L 82 72.5 L 82.5 70 Z " /><path fill="rgb(64,66,66)" stroke="rgb(64,66,66)" stroke-width="1" opacity="0.49019607843137253" d="M 36.5 73 L 69 73.5 L 36.5 74 L 34 76.5 L 29.5 84 L 29 82.5 L 36.5 73 Z " /><path fill="rgb(64,66,66)" stroke="rgb(64,66,66)" stroke-width="1" opacity="0.49019607843137253" d="M 80.5 78 L 77.5 82 L 80.5 78 Z " /><path fill="rgb(64,66,66)" stroke="rgb(64,66,66)" stroke-width="1" opacity="0.49019607843137253" d="M 71.5 83 L 74 83.5 L 71.5 84 L 71.5 83 Z " /><path fill="rgb(64,66,66)" stroke="rgb(64,66,66)" stroke-width="1" opacity="0.49019607843137253" d="M 32.5 85 L 44.5 85 L 49 89.5 L 44.5 86 L 32.5 86 L 32.5 85 Z " /><path fill="rgb(64,66,66)" stroke="rgb(64,66,66)" stroke-width="1" opacity="0.49019607843137253" d="M 34.5 89 L 47 102.5 L 36 92.5 L 34.5 89 Z " /><path fill="rgb(64,66,66)" stroke="rgb(64,66,66)" stroke-width="1" opacity="0.49019607843137253" d="M 49.5 91 L 62 101.5 L 60.5 101 Q 52.8 97.4 49.5 91 Z " /><path fill="rgb(64,66,66)" stroke="rgb(64,66,66)" stroke-width="1" opacity="0.49019607843137253" d="M 113.5 100 L 115 100.5 L 108.5 106 L 108.5 103 L 110.5 104 L 111.5 101 L 113.5 100 Z " /><path fill="rgb(64,66,66)" stroke="rgb(64,66,66)" stroke-width="1" opacity="0.49019607843137253" d="M 48.5 103 L 49.5 105 L 48.5 103 Z " /><path fill="rgb(64,66,66)" stroke="rgb(64,66,66)" stroke-width="1" opacity="0.49019607843137253" d="M 105.5 104 L 107 104.5 L 103.5 106 L 103.5 105 L 105.5 104 Z " /><path fill="rgb(64,66,66)" stroke="rgb(64,66,66)" stroke-width="1" opacity="0.49019607843137253" d="M 51.5 105 L 60 109.5 L 58.5 110 L 52.5 107 L 51.5 105 Z " /><path fill="rgb(64,66,66)" stroke="rgb(64,66,66)" stroke-width="1" opacity="0.49019607843137253" d="M 106.5 106 L 105.5 108 L 102.5 109 L 102.5 108 L 106.5 106 Z " /><path fill="rgb(64,66,66)" stroke="rgb(64,66,66)" stroke-width="1" opacity="0.49019607843137253" d="M 76.5 107 L 79 107.5 L 76.5 108 L 76.5 107 Z " /><path fill="rgb(64,66,66)" stroke="rgb(64,66,66)" stroke-width="1" opacity="0.49019607843137253" d="M 95.5 107 L 98 107.5 L 95.5 108 L 95.5 107 Z " /><path fill="rgb(64,66,66)" stroke="rgb(64,66,66)" stroke-width="1" opacity="0.49019607843137253" d="M 82.5 108 L 93 108.5 L 82.5 109 L 82.5 108 Z " /><path fill="rgb(64,66,66)" stroke="rgb(64,66,66)" stroke-width="1" opacity="0.49019607843137253" d="M 64.5 111 L 67 111.5 L 64.5 112 L 64.5 111 Z " /><path fill="rgb(64,66,66)" stroke="rgb(64,66,66)" stroke-width="1" opacity="0.49019607843137253" d="M 93.5 111 L 96 111.5 L 93.5 112 L 93.5 111 Z " /><path fill="rgb(64,66,66)" stroke="rgb(64,66,66)" stroke-width="1" opacity="0.49019607843137253" d="M 68.5 112 L 71 112.5 L 68.5 113 L 68.5 112 Z " /><path fill="rgb(64,66,66)" stroke="rgb(64,66,66)" stroke-width="1" opacity="0.49019607843137253" d="M 89.5 112 L 92 112.5 L 89.5 113 L 89.5 112 Z " /><path fill="rgb(64,66,66)" stroke="rgb(64,66,66)" stroke-width="1" opacity="0.49019607843137253" d="M 75.5 113 L 85 113.5 L 75.5 114 L 75.5 113 Z " /><path fill="rgb(20,179,181)" stroke="rgb(20,179,181)" stroke-width="1" opacity="0.45098039215686275" d="M 86.5 4 L 96 4.5 L 86.5 5 L 86.5 4 Z " /><path fill="rgb(20,179,181)" stroke="rgb(20,179,181)" stroke-width="1" opacity="0.45098039215686275" d="M 79.5 5 L 82 5.5 L 79.5 6 L 79.5 5 Z " /><path fill="rgb(20,179,181)" stroke="rgb(20,179,181)" stroke-width="1" opacity="0.45098039215686275" d="M 99.5 5 L 103 5.5 L 99.5 6 L 99.5 5 Z " /><path fill="rgb(20,179,181)" stroke="rgb(20,179,181)" stroke-width="1" opacity="0.45098039215686275" d="M 74.5 6 L 77 6.5 L 74.5 7 L 74.5 6 Z " /><path fill="rgb(20,179,181)" stroke="rgb(20,179,181)" stroke-width="1" opacity="0.45098039215686275" d="M 104.5 6 L 107 6.5 L 104.5 7 L 104.5 6 Z " /><path fill="rgb(20,179,181)" stroke="rgb(20,179,181)" stroke-width="1" opacity="0.45098039215686275" d="M 68.5 8 L 70 8.5 L 66.5 10 L 66.5 9 L 68.5 8 Z " /><path fill="rgb(20,179,181)" stroke="rgb(20,179,181)" stroke-width="1" opacity="0.45098039215686275" d="M 114.5 9 L 121 12.5 L 119.5 12 L 114.5 10 L 114.5 9 Z " /><path fill="rgb(20,179,181)" stroke="rgb(20,179,181)" stroke-width="1" opacity="0.45098039215686275" d="M 90.5 10 L 104 10.5 L 90.5 11 L 90.5 10 Z " /><path fill="rgb(20,179,181)" stroke="rgb(20,179,181)" stroke-width="1" opacity="0.45098039215686275" d="M 62.5 11 L 61.5 13 L 59.5 14 L 60.5 12 L 62.5 11 Z " /><path fill="rgb(20,179,181)" stroke="rgb(20,179,181)" stroke-width="1" opacity="0.45098039215686275" d="M 84.5 11 L 87 11.5 L 84.5 12 L 84.5 11 Z " /><path fill="rgb(20,179,181)" stroke="rgb(20,179,181)" stroke-width="1" opacity="0.45098039215686275" d="M 106.5 11 L 109 11.5 L 106.5 12 L 106.5 11 Z " /><path fill="rgb(20,179,181)" stroke="rgb(20,179,181)" stroke-width="1" opacity="0.45098039215686275" d="M 80.5 12 L 83 12.5 L 78.5 14 L 78.5 13 L 80.5 12 Z " /><path fill="rgb(20,179,181)" stroke="rgb(20,179,181)" stroke-width="1" opacity="0.45098039215686275" d="M 110.5 12 L 113 12.5 L 110.5 13 L 110.5 12 Z " /><path fill="rgb(20,179,181)" stroke="rgb(20,179,181)" stroke-width="1" opacity="0.45098039215686275" d="M 114.5 13 L 118 14.5 L 116.5 15 L 114.5 13 Z " /><path fill="rgb(20,179,181)" stroke="rgb(20,179,181)" stroke-width="1" opacity="0.45098039215686275" d="M 122.5 13 L 136 24.5 L 128.5 18 Q 123.2 16.2 122.5 13 Z " /><path fill="rgb(20,179,181)" stroke="rgb(20,179,181)" stroke-width="1" opacity="0.45098039215686275" d="M 57.5 14 L 56.5 16 L 57.5 14 Z " /><path fill="rgb(20,179,181)" stroke="rgb(20,179,181)" stroke-width="1" opacity="0.45098039215686275" d="M 75.5 14 L 77 14.5 L 64.5 22 L 66.5 19 L 75.5 14 Z " /><path fill="rgb(20,179,181)" stroke="rgb(20,179,181)" stroke-width="1" opacity="0.45098039215686275" d="M 54.5 16 L 43.5 28 L 54.5 16 Z " /><path fill="rgb(20,179,181)" stroke="rgb(20,179,181)" stroke-width="1" opacity="0.45098039215686275" d="M 121.5 16 L 125 18.5 L 123.5 18 L 121.5 16 Z " /><path fill="rgb(20,179,181)" stroke="rgb(20,179,181)" stroke-width="1" opacity="0.45098039215686275" d="M 126.5 19 L 127.5 21 L 126.5 19 Z " /><path fill="rgb(20,179,181)" stroke="rgb(20,179,181)" stroke-width="1" opacity="0.45098039215686275" d="M 129.5 21 L 133.5 26 L 129.5 21 Z " /><path fill="rgb(20,179,181)" stroke="rgb(20,179,181)" stroke-width="1" opacity="0.45098039215686275" d="M 62.5 22 L 56 29.5 L 48.5 41 L 49 39.5 Q 53.8 28.8 62.5 22 Z " /><path fill="rgb(20,179,181)" stroke="rgb(20,179,181)" stroke-width="1" opacity="0.45098039215686275" d="M 135.5 26 L 138 27.5 L 137.5 29 L 135.5 26 Z " /><path fill="rgb(20,179,181)" stroke="rgb(20,179,181)" stroke-width="1" opacity="0.45098039215686275" d="M 42.5 29 L 41 31.5 L 39.5 34 L 40 32.5 L 42.5 29 Z " /><path fill="rgb(20,179,181)" stroke="rgb(20,179,181)" stroke-width="1" opacity="0.45098039215686275" d="M 36.5 39 L 37 40.5 L 35.5 44 L 35 41.5 L 36.5 39 Z " /><path fill="rgb(20,179,181)" stroke="rgb(20,179,181)" stroke-width="1" opacity="0.45098039215686275" d="M 43.5 42 L 47 42.5 L 43.5 43 L 43.5 42 Z " /><path fill="rgb(20,179,181)" stroke="rgb(20,179,181)" stroke-width="1" opacity="0.45098039215686275" d="M 39.5 43 L 41 43.5 L 34.5 46 L 34.5 45 L 39.5 43 Z " /><path fill="rgb(20,179,181)" stroke="rgb(20,179,181)" stroke-width="1" opacity="0.45098039215686275" d="M 115.5 44 L 119 46.5 L 116.5 45 L 115.5 44 Z " /><path fill="rgb(20,179,181)" stroke="rgb(20,179,181)" stroke-width="1" opacity="0.45098039215686275" d="M 135.5 44 L 147.5 44 L 148 46.5 L 147 46.5 L 146.5 45 L 135.5 45 L 135.5 44 Z " /><path fill="rgb(20,179,181)" stroke="rgb(20,179,181)" stroke-width="1" opacity="0.45098039215686275" d="M 104.5 51 L 104 52.5 L 103.5 54 L 103 52.5 L 104.5 51 Z " /><path fill="rgb(20,179,181)" stroke="rgb(20,179,181)" stroke-width="1" opacity="0.45098039215686275" d="M 148 51 Q 151.3 49.7 150 54.5 L 149 54.5 L 148 51 Z " /><path fill="rgb(20,179,181)" stroke="rgb(20,179,181)" stroke-width="1" opacity="0.45098039215686275" d="M 132.5 53 L 133 55.5 L 132 55.5 L 132.5 53 Z " /><path fill="rgb(20,179,181)" stroke="rgb(20,179,181)" stroke-width="1" opacity="0.45098039215686275" d="M 144.5 54 L 145 56.5 L 144 56.5 L 144.5 54 Z " /><path fill="rgb(20,179,181)" stroke="rgb(20,179,181)" stroke-width="1" opacity="0.45098039215686275" d="M 131.5 57 L 132 59.5 L 131 59.5 L 131.5 57 Z " /><path fill="rgb(20,179,181)" stroke="rgb(20,179,181)" stroke-width="1" opacity="0.45098039215686275" d="M 146.5 57 L 147 59.5 L 146 59.5 L 146.5 57 Z " /><path fill="rgb(20,179,181)" stroke="rgb(20,179,181)" stroke-width="1" opacity="0.45098039215686275" d="M 82.5 58 L 83 60.5 L 82 60.5 L 82.5 58 Z " /><path fill="rgb(20,179,181)" stroke="rgb(20,179,181)" stroke-width="1" opacity="0.45098039215686275" d="M 130.5 61 L 131 63.5 L 130 63.5 L 130.5 61 Z " /><path fill="rgb(20,179,181)" stroke="rgb(20,179,181)" stroke-width="1" opacity="0.45098039215686275" d="M 83.5 62 L 84 64.5 L 83 64.5 L 83.5 62 Z " /><path fill="rgb(20,179,181)" stroke="rgb(20,179,181)" stroke-width="1" opacity="0.45098039215686275" d="M 144.5 64 L 145 66.5 L 144 66.5 L 144.5 64 Z " /><path fill="rgb(20,179,181)" stroke="rgb(20,179,181)" stroke-width="1" opacity="0.45098039215686275" d="M 149.5 64 L 150 68.5 L 149 68.5 L 149.5 64 Z " /><path fill="rgb(20,179,181)" stroke="rgb(20,179,181)" stroke-width="1" opacity="0.45098039215686275" d="M 129.5 65 L 130 67.5 L 128 66.5 L 129.5 65 Z " /><path fill="rgb(20,179,181)" stroke="rgb(20,179,181)" stroke-width="1" opacity="0.45098039215686275" d="M 140.5 67 L 141 69.5 L 140 69.5 L 140.5 67 Z " /><path fill="rgb(20,179,181)" stroke="rgb(20,179,181)" stroke-width="1" opacity="0.45098039215686275" d="M 117.5 68 L 123 77.5 L 121 76.5 L 117.5 68 Z " /><path fill="rgb(20,179,181)" stroke="rgb(20,179,181)" stroke-width="1" opacity="0.45098039215686275" d="M 85.5 69 L 86 71.5 L 85 71.5 L 85.5 69 Z " /><path fill="rgb(20,179,181)" stroke="rgb(20,179,181)" stroke-width="1" opacity="0.45098039215686275" d="M 106.5 70 L 106 71.5 L 102.5 78 L 103 76.5 L 106.5 70 Z " /><path fill="rgb(20,179,181)" stroke="rgb(20,179,181)" stroke-width="1" opacity="0.45098039215686275" d="M 148.5 71 L 149 73.5 L 148 73.5 L 148.5 71 Z " /><path fill="rgb(20,179,181)" stroke="rgb(20,179,181)" stroke-width="1" opacity="0.45098039215686275" d="M 86.5 73 L 87 75.5 L 86 75.5 L 86.5 73 Z " /><path fill="rgb(20,179,181)" stroke="rgb(20,179,181)" stroke-width="1" opacity="0.45098039215686275" d="M 141.5 74 L 142 76.5 L 141 76.5 L 141.5 74 Z " /><path fill="rgb(20,179,181)" stroke="rgb(20,179,181)" stroke-width="1" opacity="0.45098039215686275" d="M 88.5 80 L 91 83.5 L 88 81.5 L 88.5 80 Z " /><path fill="rgb(20,179,181)" stroke="rgb(20,179,181)" stroke-width="1" opacity="0.45098039215686275" d="M 136.5 80 L 137.5 82 L 140 80.5 L 135.5 85 Q 130.8 85.3 129 88.5 L 127.5 91 L 128 89.5 L 131 84 Q 134.8 84.8 136 81.5 L 136.5 80 Z " /><path fill="rgb(20,179,181)" stroke="rgb(20,179,181)" stroke-width="1" opacity="0.45098039215686275" d="M 100.5 81 L 98.5 84 L 100.5 81 Z " /><path fill="rgb(20,179,181)" stroke="rgb(20,179,181)" stroke-width="1" opacity="0.45098039215686275" d="M 124.5 81 L 130 84.5 L 127.5 85 L 124.5 81 Z " /><path fill="rgb(20,179,181)" stroke="rgb(20,179,181)" stroke-width="1" opacity="0.45098039215686275" d="M 145.5 82 L 146 83.5 L 144.5 86 L 144 84.5 L 145.5 82 Z " /><path fill="rgb(20,179,181)" stroke="rgb(20,179,181)" stroke-width="1" opacity="0.45098039215686275" d="M 92.5 84 L 97 84.5 L 92.5 85 L 92.5 84 Z " /><path fill="rgb(20,179,181)" stroke="rgb(20,179,181)" stroke-width="1" opacity="0.45098039215686275" d="M 142.5 89 L 142 90.5 L 140.5 93 L 141 91.5 L 142.5 89 Z " /><path fill="rgb(20,179,181)" stroke="rgb(20,179,181)" stroke-width="1" opacity="0.45098039215686275" d="M 32.5 92 L 35 93.5 L 44 103.5 L 39 100.5 L 45 107.5 L 38 101.5 L 35 97.5 L 35.5 96 L 33 94.5 L 32.5 92 Z " /><path fill="rgb(20,179,181)" stroke="rgb(20,179,181)" stroke-width="1" opacity="0.45098039215686275" d="M 126.5 92 L 124 95.5 L 117.5 103 L 123 96.5 L 126.5 92 Z " /><path fill="rgb(20,179,181)" stroke="rgb(20,179,181)" stroke-width="1" opacity="0.45098039215686275" d="M 139.5 94 L 138.5 96 L 139.5 94 Z " /><path fill="rgb(20,179,181)" stroke="rgb(20,179,181)" stroke-width="1" opacity="0.45098039215686275" d="M 137.5 97 L 134.5 101 L 137.5 97 Z " /><path fill="rgb(20,179,181)" stroke="rgb(20,179,181)" stroke-width="1" opacity="0.45098039215686275" d="M 133.5 102 L 129.5 107 L 133.5 102 Z " /><path fill="rgb(20,179,181)" stroke="rgb(20,179,181)" stroke-width="1" opacity="0.45098039215686275" d="M 115.5 103 L 113.5 106 L 115.5 103 Z " /><path fill="rgb(20,179,181)" stroke="rgb(20,179,181)" stroke-width="1" opacity="0.45098039215686275" d="M 45.5 104 L 60 112.5 L 58.5 113 L 47.5 107 L 45.5 104 Z " /><path fill="rgb(20,179,181)" stroke="rgb(20,179,181)" stroke-width="1" opacity="0.45098039215686275" d="M 111.5 106 L 110.5 108 L 111.5 106 Z " /><path fill="rgb(20,179,181)" stroke="rgb(20,179,181)" stroke-width="1" opacity="0.45098039215686275" d="M 127.5 107 L 124.5 111 L 121.5 113 L 123.5 110 L 127.5 107 Z " /><path fill="rgb(20,179,181)" stroke="rgb(20,179,181)" stroke-width="1" opacity="0.45098039215686275" d="M 46.5 108 L 48.5 111 L 46.5 108 Z " /><path fill="rgb(20,179,181)" stroke="rgb(20,179,181)" stroke-width="1" opacity="0.45098039215686275" d="M 108.5 108 L 107.5 110 L 102.5 112 L 102.5 111 L 108.5 108 Z " /><path fill="rgb(20,179,181)" stroke="rgb(20,179,181)" stroke-width="1" opacity="0.45098039215686275" d="M 50.5 111 L 51.5 113 L 50.5 111 Z " /><path fill="rgb(20,179,181)" stroke="rgb(20,179,181)" stroke-width="1" opacity="0.45098039215686275" d="M 99.5 112 L 101 112.5 L 96.5 114 L 96.5 113 L 99.5 112 Z " /><path fill="rgb(20,179,181)" stroke="rgb(20,179,181)" stroke-width="1" opacity="0.45098039215686275" d="M 53.5 113 L 57 115.5 L 55.5 115 L 53.5 113 Z " /><path fill="rgb(20,179,181)" stroke="rgb(20,179,181)" stroke-width="1" opacity="0.45098039215686275" d="M 119.5 113 L 118.5 115 L 111.5 118 L 111.5 117 L 119.5 113 Z " /><path fill="rgb(20,179,181)" stroke="rgb(20,179,181)" stroke-width="1" opacity="0.45098039215686275" d="M 64.5 114 L 67 114.5 L 64.5 115 L 64.5 114 Z " /><path fill="rgb(20,179,181)" stroke="rgb(20,179,181)" stroke-width="1" opacity="0.45098039215686275" d="M 68.5 115 L 72 115.5 L 68.5 116 L 68.5 115 Z " /><path fill="rgb(20,179,181)" stroke="rgb(20,179,181)" stroke-width="1" opacity="0.45098039215686275" d="M 88.5 115 L 91 115.5 L 88.5 116 L 88.5 115 Z " /><path fill="rgb(20,179,181)" stroke="rgb(20,179,181)" stroke-width="1" opacity="0.45098039215686275" d="M 58.5 116 L 64 118.5 L 62.5 119 L 58.5 117 L 58.5 116 Z " /><path fill="rgb(20,179,181)" stroke="rgb(20,179,181)" stroke-width="1" opacity="0.45098039215686275" d="M 76.5 116 L 83 116.5 L 76.5 117 L 76.5 116 Z " /><path fill="rgb(20,179,181)" stroke="rgb(20,179,181)" stroke-width="1" opacity="0.45098039215686275" d="M 68.5 120 L 71 120.5 L 68.5 121 L 68.5 120 Z " /><path fill="rgb(20,179,181)" stroke="rgb(20,179,181)" stroke-width="1" opacity="0.45098039215686275" d="M 72.5 121 L 75 121.5 L 72.5 122 L 72.5 121 Z " /><path fill="rgb(20,179,181)" stroke="rgb(20,179,181)" stroke-width="1" opacity="0.45098039215686275" d="M 97.5 121 L 100 121.5 L 97.5 122 L 97.5 121 Z " /><path fill="rgb(20,179,181)" stroke="rgb(20,179,181)" stroke-width="1" opacity="0.45098039215686275" d="M 78.5 122 L 85 122.5 L 78.5 123 L 78.5 122 Z " /><path fill="rgb(20,179,181)" stroke="rgb(20,179,181)" stroke-width="1" opacity="0.45098039215686275" d="M 87.5 122 L 95 122.5 L 87.5 123 L 87.5 122 Z " /><path fill="rgb(20,179,182)" stroke="rgb(20,179,182)" stroke-width="1" opacity="0.996078431372549" d="M 82.5 5 L 98.5 5 L 113.5 9 Q 127.2 14.8 136 25.5 L 134.5 26 Q 127.2 17.3 115.5 13 L 103.5 10 L 90.5 10 Q 66.9 13.9 55 29.5 L 48 42 Q 40.3 41.6 35.5 45 L 36 43.5 Q 41.5 25.5 55.5 16 Q 66.2 7.7 82.5 5 Z " /><path fill="rgb(20,179,182)" stroke="rgb(20,179,182)" stroke-width="1" opacity="0.996078431372549" d="M 111.5 44 Q 117.7 43.3 119 47.5 L 129.5 68 L 135 45 L 146.5 45 L 147 47.5 L 137 79.5 L 133.5 84 L 130.5 85 L 124 80.5 L 112.5 59 L 101 80.5 L 97.5 84 Q 90.5 85.5 89 81.5 L 82 55.5 L 89.5 46 Q 92.5 45.1 91 49.5 L 96.5 68 L 108.5 45 L 111.5 44 Z " /><path fill="rgb(20,179,182)" stroke="rgb(20,179,182)" stroke-width="1" opacity="0.996078431372549" d="M 148.5 53 Q 151.5 56 150 63.5 L 149 64.5 L 148 75.5 L 144 86.5 Q 138.1 98.5 128.5 107 L 110.5 118 L 101.5 121 L 85.5 123 L 84.5 122 L 75.5 122 L 57.5 116 Q 46.6 110.4 39 101.5 L 35 96.5 L 43.5 104 Q 57 116.5 82.5 117 Q 84.3 114.2 90.5 116 L 103.5 112 Q 115.7 106.2 124 96.5 L 131.5 86 Q 137.9 85.4 140 80.5 L 148.5 53 Z " /><path fill="rgb(65,66,66)" stroke="rgb(65,66,66)" stroke-width="1" opacity="0.996078431372549" d="M 92.5 13 L 101 13.5 L 92.5 14 L 92.5 13 Z " /><path fill="rgb(65,66,66)" stroke="rgb(65,66,66)" stroke-width="1" opacity="0.996078431372549" d="M 85.5 17 L 95 17.5 L 85.5 18 L 85.5 17 Z " /><path fill="rgb(65,66,66)" stroke="rgb(65,66,66)" stroke-width="1" opacity="0.996078431372549" d="M 72.5 19 L 73.5 21 L 72.5 19 Z " /><path fill="rgb(65,66,66)" stroke="rgb(65,66,66)" stroke-width="1" opacity="0.996078431372549" d="M 128.5 24 L 135.5 32 L 128.5 24 Z " /><path fill="rgb(65,66,66)" stroke="rgb(65,66,66)" stroke-width="1" opacity="0.996078431372549" d="M 120.5 28 L 125.5 34 L 120.5 28 Z " /><path fill="rgb(65,66,66)" stroke="rgb(65,66,66)" stroke-width="1" opacity="0.996078431372549" d="M 137.5 34 L 138.5 36 L 137.5 34 Z " /><path fill="rgb(65,66,66)" stroke="rgb(65,66,66)" stroke-width="1" opacity="0.996078431372549" d="M 130.5 40 L 131.5 42 L 130.5 40 Z " /><path fill="rgb(65,66,66)" stroke="rgb(65,66,66)" stroke-width="1" opacity="0.996078431372549" d="M 89.5 45 L 87.5 48 L 89.5 45 Z " /><path fill="rgb(65,66,66)" stroke="rgb(65,66,66)" stroke-width="1" opacity="0.996078431372549" d="M 86.5 49 L 83 53.5 L 82.5 55 L 82 53.5 L 86.5 49 Z " /><path fill="rgb(65,66,66)" stroke="rgb(65,66,66)" stroke-width="1" opacity="0.996078431372549" d="M 33.5 55 L 34 58.5 L 33 58.5 L 33.5 55 Z " /><path fill="rgb(65,66,66)" stroke="rgb(65,66,66)" stroke-width="1" opacity="0.996078431372549" d="M 45.5 55 L 44.5 57 L 45.5 55 Z " /><path fill="rgb(65,66,66)" stroke="rgb(65,66,66)" stroke-width="1" opacity="0.996078431372549" d="M 47.5 60 L 70 60.5 L 47.5 61 L 47.5 60 Z " /><path fill="rgb(65,66,66)" stroke="rgb(65,66,66)" stroke-width="1" opacity="0.996078431372549" d="M 77.5 62 L 78.5 64 L 77.5 62 Z " /><path fill="rgb(65,66,66)" stroke="rgb(65,66,66)" stroke-width="1" opacity="0.996078431372549" d="M 35.5 63 L 37.5 66 L 35.5 63 Z " /><path fill="rgb(65,66,66)" stroke="rgb(65,66,66)" stroke-width="1" opacity="0.996078431372549" d="M 34.5 88 L 35.5 90 L 34.5 88 Z " /><path fill="rgb(65,66,66)" stroke="rgb(65,66,66)" stroke-width="1" opacity="0.996078431372549" d="M 47.5 89 L 48.5 91 L 47.5 89 Z " /><path fill="rgb(65,66,66)" stroke="rgb(65,66,66)" stroke-width="1" opacity="0.996078431372549" d="M 37.5 92 L 38.5 94 L 37.5 92 Z " /><path fill="rgb(65,66,66)" stroke="rgb(65,66,66)" stroke-width="1" opacity="0.996078431372549" d="M 56.5 98 L 57.5 100 L 56.5 98 Z " /><path fill="rgb(65,66,66)" stroke="rgb(65,66,66)" stroke-width="1" opacity="0.996078431372549" d="M 46.5 101 L 47.5 103 L 46.5 101 Z " /><path fill="rgb(65,66,66)" stroke="rgb(65,66,66)" stroke-width="1" opacity="0.996078431372549" d="M 111.5 102 L 110.5 104 L 109 103.5 L 111.5 102 Z " /><path fill="rgb(65,66,66)" stroke="rgb(65,66,66)" stroke-width="1" opacity="0.996078431372549" d="M 102.5 106 L 103.5 108 L 102.5 106 Z " /><path fill="rgb(65,66,66)" stroke="rgb(65,66,66)" stroke-width="1" opacity="1" d="M 87.5 14 Q 105.1 11.9 115.5 17 Q 129 22.5 137 33.5 L 142 41.5 L 132.5 42 L 120.5 28 Q 112.6 20.9 100.5 18 L 85.5 17 Q 84.2 19.3 79.5 18 L 70.5 22 L 71.5 20 L 87.5 14 Z " /><path fill="rgb(65,66,66)" stroke="rgb(65,66,66)" stroke-width="1" opacity="1" d="M 44.5 45 L 89 45.5 L 82 55 L 45.5 55 L 44 56.5 Q 42.3 61.3 46.5 60 L 47.5 61 L 73.5 61 L 80 64 L 82 69.5 L 82 73.5 L 77.5 81 L 68.5 84 L 30.5 84 L 31 82.5 L 36.5 74 L 69.5 74 L 71 72.5 Q 71.8 68.8 69.5 68 L 43.5 68 Q 37 66.5 34 61.5 Q 32 51 37.5 48 L 44.5 45 Z " /><path fill="rgb(65,66,66)" stroke="rgb(65,66,66)" stroke-width="1" opacity="1" d="M 34 86 L 44.5 86 L 47 88.5 L 57.5 100 Q 70.1 110.4 94.5 109 L 104.5 106 L 104.5 107 L 98.5 110 L 86.5 113 L 73.5 113 Q 50.8 109.2 39 94.5 L 34 86 Z " /></svg>